<?xml version="1.0" encoding="utf-8"?>
<!-- Generator: Adobe Illustrator 17.1.0, SVG Export Plug-In . SVG Version: 6.00 Build 0)  -->
<!DOCTYPE svg PUBLIC "-//W3C//DTD SVG 1.1//EN" "http://www.w3.org/Graphics/SVG/1.1/DTD/svg11.dtd">
<svg version="1.1" id="Layer_2" xmlns="http://www.w3.org/2000/svg" xmlns:xlink="http://www.w3.org/1999/xlink" x="0px" y="0px"
	 width="56px" height="69px" viewBox="0 0 56 69" enable-background="new 0 0 56 69" xml:space="preserve">
<g>
	<g>
		
			<polyline fill="none" stroke="#FF8000" stroke-width="3" stroke-linecap="round" stroke-linejoin="round" stroke-miterlimit="10" points="
			35.3,24.7 44.4,24.7 44.4,33.7 		"/>
		<path fill="none" stroke="#FF8000" stroke-width="3" stroke-linecap="round" stroke-linejoin="round" stroke-miterlimit="10" d="
			M31.9,41.6v5.5V63c0,2.5-2,4.5-4.5,4.5H6c-2.5,0-4.5-2-4.5-4.5V41.6c0-2.5,2-4.5,4.5-4.5h12.8c0.7,0,1.3,1.5,1.5,2
			c0.7,1.5,1,3.2,1.2,4.8c0.4,3.9-0.4,8.3-3.7,10.8c-1.3,1-3.7,2.4-5.2,1.2c-2.1-1.6-0.1-4.6,0.9-6.3c0.7-1.2,1.6-2.3,2.6-3.3
			c2-2,4.3-3.7,6.7-5.3c2.3-1.5,4.6-2.9,6.9-4.4c4.8-3.3,9.6-6.8,13.7-10.9"/>
		<path fill="none" stroke="#FF8000" stroke-width="3" stroke-linecap="round" stroke-linejoin="round" stroke-miterlimit="10" d="
			M47.5,14.5H50c2.5,0,4.5,2,4.5,4.5v21.4c0,2.5-2,4.5-4.5,4.5H37.6"/>
	</g>
	<path fill="none" stroke="#FF8000" stroke-width="3" stroke-linecap="round" stroke-linejoin="round" stroke-miterlimit="10" d="
		M24.1,31.5V19c0-2.5,2-4.5,4.5-4.5h4.8c1.6,0,3.3-0.1,4.7-0.8c2.2-1.1,4.2-3.6,5.2-5.7c0.6-1.3,2.4-5.3,0.2-6.4
		c-0.6-0.3-1.1-0.2-1.5,0c-0.4,0.2-0.8,0.6-1.1,1c-1.5,1.8-2.1,4.3-1.7,6.6c0.2,1,0.5,2.3,1.5,2.9c0.9,0.5,2.2,0.3,3.1,0
		c1.4-0.5,2.6-1.4,3.7-2.3c0.6-0.4,1.1-0.9,1.7-1.4"/>
	<path fill="none" stroke="#FF8000" stroke-width="3" stroke-linecap="round" stroke-linejoin="round" stroke-miterlimit="10" d="
		M40.6,11.4c-0.9,0.7-3.2,1-4.5,0.1c-1.3-0.9-2.1-2.4-2-4.1c0.1-1.2,0.9-1.9,1.5-2.1c1-0.2,1.9,0.4,2.6,1.2c1.2,1.4,1.2,3.9-0.1,5.2
		c-1.3,1.3-3.5,0.4-4.9-0.3c-0.8-0.4-1.4-0.9-2.1-1.4c-0.9-0.6-1.5-1.3-2.9-1.5"/>
</g>
</svg>
